# xmcd
# 
# Track frame offsets:
#     150
#     21480
#     50242
#     70320
#     90180
#     112625
#     132247
#     141047
#     158345
#     179735
#     196875
#     216347
# 
# Disc length: 3209
# 
# Revision: 11
# Processed by: cddbd v1.5.2PL0 Copyright (c) Steve Scherf et al.
# Submitted via: fre:ac v1.0.31
# 
DISCID=a60c870c
DTITLE=Radiohead - OK Computer
DYEAR=1997
DGENRE=Alt. Rock
TTITLE0=Airbag
TTITLE1=Paranoid Android
TTITLE2=Subterranean Homesick Alien
TTITLE3=Exit Music (For A Film)
TTITLE4=Let Down
TTITLE5=Karma Police
TTITLE6=Fitter Happier
TTITLE7=Electioneering
TTITLE8=Climbing Up The Walls
TTITLE9=No Surprises
TTITLE10=Lucky
TTITLE11=The Tourist
EXTD=
EXTT0=
EXTT1=
EXTT2=
EXTT3=
EXTT4=
EXTT5=
EXTT6=
EXTT7=
EXTT8=
EXTT9=
EXTT10=
EXTT11=
PLAYORDER=
